<?xml version="1.0" standalone="no"?>
<!DOCTYPE svg PUBLIC "-//W3C//DTD SVG 20010904//EN"
 "http://www.w3.org/TR/2001/REC-SVG-20010904/DTD/svg10.dtd">
<svg version="1.0" xmlns="http://www.w3.org/2000/svg"
 width="512.000000pt" height="512.000000pt" viewBox="0 0 512.000000 512.000000"
 preserveAspectRatio="xMidYMid meet">
<metadata>
Created by potrace 1.14, written by Peter Selinger 2001-2017
</metadata>
<g transform="translate(0.000000,512.000000) scale(0.100000,-0.100000)"
fill="#000000" stroke="none">
<path d="M1970 4342 c-48 -6 -78 -24 -92 -55 -10 -26 -13 -181 -13 -797 l0
-765 27 -45 c59 -101 178 -143 302 -106 74 22 113 59 153 143 56 117 115 147
294 145 111 -1 164 -23 197 -81 42 -73 34 -631 -11 -815 -38 -156 -277 -263
-430 -193 -63 28 -101 74 -112 132 -10 60 -40 101 -100 135 -118 67 -314 76
-364 16 -11 -13 -12 -43 -8 -134 14 -276 99 -432 297 -545 47 -27 143 -62 195
-72 17 -3 46 -8 65 -11 45 -8 193 -8 245 0 162 26 330 101 436 193 128 113
196 247 234 458 19 107 28 679 12 800 -24 198 -86 359 -171 447 -54 57 -136
100 -248 130 -124 34 -367 33 -478 -1 -19 -6 -36 -11 -37 -11 -1 0 -1 120 0
268 l2 267 395 2 c217 2 405 5 417 8 66 15 100 251 57 395 -32 104 30 95 -647
95 -325 0 -603 -1 -617 -3z"/>
<path d="M1822 1178 c-15 -15 -17 -397 -2 -399 6 -1 16 -2 23 -3 27 -4 33 15
32 109 0 52 2 95 5 95 3 0 22 -45 44 -99 38 -99 56 -119 87 -100 11 6 14 51
14 199 1 188 -2 209 -32 204 -7 -1 -17 -2 -23 -3 -6 0 -10 -45 -11 -108 l0
-108 -40 100 c-46 115 -69 141 -97 113z"/>
<path d="M2114 1179 c-11 -18 7 -88 21 -83 21 8 40 63 27 76 -15 15 -40 19
-48 7z"/>
<path d="M2431 1170 c-4 -8 -6 -97 -6 -198 1 -141 4 -185 14 -192 20 -12 117
-6 135 9 26 22 40 83 39 181 0 97 -12 161 -37 195 -18 25 -133 30 -145 5z
m104 -77 c12 -43 14 -184 3 -221 -6 -23 -14 -32 -26 -30 -15 3 -17 19 -18 128
-1 68 1 130 3 137 9 22 31 14 38 -14z"/>
<path d="M2713 1182 c-11 -7 -15 -103 -14 -328 1 -76 13 -95 49 -75 15 8 17
33 17 205 1 108 -2 196 -6 196 -4 0 -13 2 -21 5 -7 3 -18 1 -25 -3z"/>
<path d="M2868 1182 c-18 -4 -21 -46 -19 -336 0 -68 16 -89 50 -67 11 7 15 34
15 110 0 56 1 101 2 101 1 0 19 -44 40 -97 21 -54 42 -103 47 -110 9 -13 47
-9 56 6 9 14 6 375 -3 389 -4 6 -17 10 -29 8 -21 -3 -22 -8 -25 -112 l-3 -109
-45 107 c-45 107 -54 118 -86 110z"/>
<path d="M3149 1165 c-7 -105 -2 -385 6 -388 6 -2 42 -3 80 -3 66 1 70 2 73
25 5 32 -5 39 -55 42 l-43 3 0 48 c0 48 5 54 47 49 13 -2 30 26 29 49 -1 10
-13 16 -38 18 l-36 3 1 52 c2 51 2 52 37 54 51 4 60 10 60 38 0 29 6 27 -87
29 -67 1 -73 0 -74 -19z"/>
</g>
</svg>
