<?xml version="1.0" encoding="UTF-8" standalone="no"?>
<!-- Created with Inkscape (http://www.inkscape.org/) -->

<svg
   width="512"
   height="512"
   viewBox="0 0 135.46666 135.46667"
   version="1.1"
   id="svg5"
   inkscape:version="1.2.2 (1:1.2.2+202305151914+b0a8486541)"
   sodipodi:docname="logo.svg"
   xmlns:inkscape="http://www.inkscape.org/namespaces/inkscape"
   xmlns:sodipodi="http://sodipodi.sourceforge.net/DTD/sodipodi-0.dtd"
   xmlns="http://www.w3.org/2000/svg"
   xmlns:svg="http://www.w3.org/2000/svg">
  <sodipodi:namedview
     id="namedview7"
     pagecolor="#ffffff"
     bordercolor="#000000"
     borderopacity="0.25"
     inkscape:showpageshadow="2"
     inkscape:pageopacity="0.0"
     inkscape:pagecheckerboard="0"
     inkscape:deskcolor="#d1d1d1"
     inkscape:document-units="mm"
     showgrid="false"
     inkscape:zoom="0.914906"
     inkscape:cx="286.91472"
     inkscape:cy="363.42531"
     inkscape:window-width="1920"
     inkscape:window-height="962"
     inkscape:window-x="0"
     inkscape:window-y="0"
     inkscape:window-maximized="1"
     inkscape:current-layer="layer1" />
  <defs
     id="defs2" />
  <g
     inkscape:label="Layer 1"
     inkscape:groupmode="layer"
     id="layer1">
    <rect
       style="fill:#ffa800;fill-opacity:1;stroke-width:1.5875"
       id="rect362"
       width="149.52007"
       height="150.17415"
       x="-5.7352614"
       y="-6.431129"
       rx="7.9222417"
       ry="7.9222417" />
    <g
       id="g308"
       transform="translate(0,1.5852245)">
      <g
         id="SvgjsG3695"
         featurekey="1cK3sX-0"
         transform="matrix(5.7832421,0,0,5.7832421,39.793045,-15.810902)"
         fill="#1f2260">
        <path
           d="m 6.98,10.94 c 1.5,0.76 1.28,3.64 1.26,4.46 -0.02,0.98 -0.02,2.14 -0.58,3 C 6.64,20.1 3.8,20.54 2.3,19.26 1.5,18.6 1.4,17.62 1.4,16.62 c 0,-0.6 2.18,-0.4 2.18,0.6 0,0 0,0.08 0.04,0.14 0.56,1 2.2,0.44 2.44,-0.46 0.16,-0.66 0.2,-2.22 0.16,-2.98 0,-0.86 -0.2,-1.14 -0.98,-1.14 -0.36,0 -1.1,-0.04 -1.36,0.6 C 3.62,14.42 2,14.44 1.68,13.44 1.64,13.18 1.64,12.88 1.64,12.66 V 7.18 C 1.64,6 1.64,6 2.76,6 h 4.8 c 0.6,0 0.6,2.28 0,2.28 H 3.92 v 2.48 c 0.38,-0.2 1.88,-0.42 3.06,0.18 z"
           id="path183" />
      </g>
      <g
         id="SvgjsG3696"
         featurekey="1cK3sX-1"
         transform="matrix(0.77711964,0,0,0.77711964,46.801616,97.857503)"
         fill="#1f2260">
        <path
           d="m 8.74,6.42 v 12.74 c 0,1 -1.92,1.02 -2.12,0.52 l -3,-7.36 v 7.24 c 0,0.6 -2.22,0.6 -2.22,0 V 7.06 C 1.4,5.5 3.34,5.96 3.6,6.52 L 6.54,13.6 V 6.42 c 0,-0.6 2.2,-0.6 2.2,0 z M 13.36,6.2 c 0.4,0.32 0.34,1.24 -0.48,2.64 -0.36,0.6 -1.32,0 -1.04,-0.6 0.04,-0.1 0.1,-0.2 0.14,-0.3 C 11.88,7.92 11.82,7.88 11.76,7.84 11.48,7.56 11.46,6.5 11.74,6.22 12.02,5.92 13.08,5.92 13.36,6.2 Z M 23.6,6 h 2.7 c 3.34,0 3.44,14 0.2,14 H 23.66 C 22.4,20 22.4,20 22.4,18.9 V 7.1 c 0,-1.08 0,-1.08 1.2,-1.1 z m 1.88,2.26 h -0.02 c -0.8,0 -0.8,0 -0.8,0.76 v 7.96 c 0,0.74 0,0.74 0.84,0.74 h 0.12 c 1.3,0 1.24,-9.46 -0.14,-9.46 z m 8.46,-1.84 v 13.14 c 0,0.6 -2.28,0.6 -2.28,0 V 6.42 c 0,-0.6 2.28,-0.6 2.28,0 z m 10.14,0 v 12.74 c 0,1 -1.92,1.02 -2.12,0.52 l -3,-7.36 v 7.24 c 0,0.6 -2.22,0.6 -2.22,0 V 7.06 c 0,-1.56 1.94,-1.1 2.2,-0.54 l 2.94,7.08 V 6.42 c 0,-0.6 2.2,-0.6 2.2,0 z m 5.08,11.3 h 2.86 c 0.6,0 0.6,2.28 0,2.28 h -3.86 c -1.28,0 -1.28,0 -1.28,-1.08 V 7.08 C 46.88,6 46.88,6 48.1,5.98 L 52,6 c 0.6,0 0.6,2.28 0,2.28 h -2.84 v 3.64 h 2 c 0.6,0 0.6,2.3 0,2.3 h -2 z"
           id="path186" />
      </g>
    </g>
    <g
       id="SvgjsG4443"
       featurekey="1cK3sX-0"
       transform="matrix(1.3877442,0,0,1.3877442,20.686656,149.31021)"
       fill="#1f2260">
      <path
         d="m 6.98,10.94 c 1.5,0.76 1.28,3.64 1.26,4.46 -0.02,0.98 -0.02,2.14 -0.58,3 C 6.64,20.1 3.8,20.54 2.3,19.26 1.5,18.6 1.4,17.62 1.4,16.62 c 0,-0.6 2.18,-0.4 2.18,0.6 0,0 0,0.08 0.04,0.14 0.56,1 2.2,0.44 2.44,-0.46 0.16,-0.66 0.2,-2.22 0.16,-2.98 0,-0.86 -0.2,-1.14 -0.98,-1.14 -0.36,0 -1.1,-0.04 -1.36,0.6 C 3.62,14.42 2,14.44 1.68,13.44 1.64,13.18 1.64,12.88 1.64,12.66 V 7.18 C 1.64,6 1.64,6 2.76,6 h 4.8 c 0.6,0 0.6,2.28 0,2.28 H 3.92 v 2.48 C 4.3,10.56 5.8,10.34 6.98,10.94 Z M 24.4,6.42 v 12.74 c 0,1 -1.92,1.02 -2.12,0.52 l -3,-7.36 v 7.24 c 0,0.6 -2.22,0.6 -2.22,0 V 7.06 c 0,-1.56 1.94,-1.1 2.2,-0.54 L 22.2,13.6 V 6.42 c 0,-0.6 2.2,-0.6 2.2,0 z M 29.02,6.2 c 0.4,0.32 0.34,1.24 -0.48,2.64 -0.36,0.6 -1.32,0 -1.04,-0.6 0.04,-0.1 0.1,-0.2 0.14,-0.3 C 27.54,7.92 27.48,7.88 27.42,7.84 27.14,7.56 27.12,6.5 27.4,6.22 27.68,5.92 28.74,5.92 29.02,6.2 Z M 39.26,6 h 2.7 c 3.34,0 3.44,14 0.2,14 h -2.84 c -1.26,0 -1.26,0 -1.26,-1.1 V 7.1 c 0,-1.08 0,-1.08 1.2,-1.1 z m 1.88,2.26 h -0.02 c -0.8,0 -0.8,0 -0.8,0.76 v 7.96 c 0,0.74 0,0.74 0.84,0.74 h 0.12 c 1.3,0 1.24,-9.46 -0.14,-9.46 z M 49.6,6.42 v 13.14 c 0,0.6 -2.28,0.6 -2.28,0 V 6.42 c 0,-0.6 2.28,-0.6 2.28,0 z m 10.14,0 v 12.74 c 0,1 -1.92,1.02 -2.12,0.52 l -3,-7.36 v 7.24 c 0,0.6 -2.22,0.6 -2.22,0 V 7.06 c 0,-1.56 1.94,-1.1 2.2,-0.54 l 2.94,7.08 V 6.42 c 0,-0.6 2.2,-0.6 2.2,0 z m 5.08,11.3 h 2.86 c 0.6,0 0.6,2.28 0,2.28 h -3.86 c -1.28,0 -1.28,0 -1.28,-1.08 V 7.08 c 0,-1.08 0,-1.08 1.22,-1.1 L 67.66,6 c 0.6,0 0.6,2.28 0,2.28 h -2.84 v 3.64 h 2 c 0.6,0 0.6,2.3 0,2.3 h -2 z"
         id="path997" />
    </g>
  </g>
</svg>
